<?xml version="1.0" encoding="UTF-8" standalone="no"?>
<!-- Created with Inkscape (http://www.inkscape.org/) -->

<svg
   version="1.1"
   id="svg1"
   width="512"
   height="512"
   viewBox="0 0 512.00001 512"
   sodipodi:docname="ddr3-ram-icon.svg"
   inkscape:version="1.4.2 (ebf0e940d0, 2025-05-08)"
   xmlns:inkscape="http://www.inkscape.org/namespaces/inkscape"
   xmlns:sodipodi="http://sodipodi.sourceforge.net/DTD/sodipodi-0.dtd"
   xmlns="http://www.w3.org/2000/svg"
   xmlns:svg="http://www.w3.org/2000/svg">
  <defs
     id="defs1" />
  <sodipodi:namedview
     id="namedview1"
     pagecolor="#ffffff"
     bordercolor="#000000"
     borderopacity="0.25"
     inkscape:showpageshadow="2"
     inkscape:pageopacity="0.0"
     inkscape:pagecheckerboard="0"
     inkscape:deskcolor="#d1d1d1"
     inkscape:zoom="1.1960048"
     inkscape:cx="168.47758"
     inkscape:cy="188.54439"
     inkscape:window-width="1895"
     inkscape:window-height="1282"
     inkscape:window-x="0"
     inkscape:window-y="0"
     inkscape:window-maximized="1"
     inkscape:current-layer="g1" />
  <g
     inkscape:groupmode="layer"
     inkscape:label="Image"
     id="g1"
     transform="translate(-30.852291,-19.171275)">
    <path
       style="fill:#000000;stroke-width:2.46564"
       d="m 129.0172,505.81214 c -28.59045,-28.52773 -28.21873,-27.92915 -21.57195,-34.73607 l 3.84297,-3.93555 -3.66282,-3.66282 -3.66282,-3.66279 -4.53279,4.17818 c -2.49304,2.29802 -5.28295,4.17819 -6.1998,4.17819 -0.91684,0 -5.70815,-3.97638 -10.64735,-8.83636 C 71.973839,448.8962 71.489616,447.1752 77.445258,441.07608 l 3.842972,-3.93556 -3.662824,-3.66281 -3.662821,-3.66283 -4.532794,4.17822 c -2.493037,2.29798 -5.314286,4.17818 -6.269429,4.17818 -0.955142,0 -8.615214,-6.87858 -17.022357,-15.28572 -12.825901,-12.82591 -15.285712,-15.76183 -15.285712,-18.24447 0,-2.60133 23.102525,-26.06123 191.255537,-194.21428 C 390.42698,42.107663 413.71888,19.171278 416.32784,19.171278 c 2.51117,0 5.75963,2.79518 21.24446,18.280009 12.71342,12.713433 18.27998,18.955169 18.27998,20.497134 0,1.219411 -1.565,3.949375 -3.47774,6.066578 l -3.47778,3.849465 2.48922,2.338471 2.48919,2.338488 3.28617,-3.185068 c 5.5542,-5.383317 7.9038,-4.64151 18.00998,5.686174 5.40368,5.522107 8.68097,9.673796 8.68097,10.997104 0,1.16924 -1.56498,3.85815 -3.47777,5.97535 l -3.47775,3.84946 2.48921,2.3385 2.4892,2.338477 3.28616,-3.185057 c 6.29773,-6.104 6.39842,-6.04049 33.46804,21.111777 20.61201,20.67494 24.22291,24.73449 24.22291,27.23251 0,2.55846 -11.27543,14.2132 -87.75091,90.70314 -66.24536,66.25785 -88.32334,87.7675 -90.08657,87.7675 -1.5013,0 -4.6348,-2.2078 -8.77203,-6.18055 l -6.43637,-6.18054 -3.9583,3.86515 -3.95827,3.86518 5.98124,6.22881 c 4.43777,4.62149 5.9812,6.96059 5.9812,9.06455 0,2.42824 -13.90618,16.73975 -96.76586,99.58655 -84.52872,84.51555 -97.13824,96.75083 -99.71009,96.75083 -2.5134,0 -6.66297,-3.71063 -28.35913,-25.35913 z m 120.08304,-79.3888 c 49.91364,-49.91138 90.75206,-91.21296 90.75206,-91.7813 0,-0.56835 -2.70001,-3.7052 -6,-6.97075 -3.3807,-3.34544 -6.00001,-6.81635 -6.00001,-7.95083 0,-3.0869 18.80939,-21.54919 21.95434,-21.54919 1.71669,0 4.44862,1.93937 8.78212,6.23437 l 6.29025,6.23434 81.98663,-81.98205 c 45.09268,-45.09016 81.98665,-82.43756 81.98665,-82.99422 0,-0.55669 -8.45192,-9.4553 -18.78206,-19.77472 l -18.7821,-18.76257 -3.41409,3.52243 c -5.12247,5.28505 -7.01771,4.78657 -16.07359,-4.22756 -4.28221,-4.26249 -8.06952,-8.736697 -8.4162,-9.942677 -0.4728,-1.6447 0.29534,-3.21727 3.07373,-6.2926 l 3.70404,-4.09994 -3.35671,-3.463253 -3.35671,-3.463223 -3.59029,3.505856 c -2.03471,1.986782 -4.60458,3.50584 -5.93117,3.50584 -2.70961,0 -17.51875,-14.130092 -18.54289,-17.692658 -0.47311,-1.645754 0.29807,-3.220304 3.09159,-6.312405 l 3.72194,-4.11975 -12.40775,-12.437586 C 422.96577,38.768191 416.926,33.171295 416.3683,33.171295 c -1.30516,0 -371.516007,370.175145 -371.516007,371.480185 0,0.54023 4.133781,5.13326 9.186192,10.20674 l 9.186176,9.22456 4.291463,-3.95576 c 2.360322,-2.17566 5.288072,-3.95575 6.50613,-3.95575 1.460921,0 5.382465,3.16782 11.522365,9.30769 10.89268,10.8927 11.31187,12.32939 5.30795,18.19204 l -3.99973,3.90565 3.16854,3.26907 3.16852,3.26908 4.30886,-3.97176 c 2.36986,-2.18446 5.305431,-3.97177 6.523491,-3.97177 1.46092,0 5.38249,3.16781 11.52236,9.30771 10.89952,10.89952 11.31413,12.32716 5.28852,18.211 l -4.01919,3.92464 19.75981,19.77833 c 10.86788,10.87806 20.21311,19.77833 20.76714,19.77833 0.55401,0 41.84572,-40.83658 91.75935,-90.74794 z m -78.72956,51.76644 -6.928,-6.98149 2.91112,-3.03856 2.91111,-3.03855 7.27912,7.23054 7.27911,7.23054 -2.67251,2.7895 c -1.46988,1.53423 -2.9379,2.78951 -3.26226,2.78951 -0.32432,0 -3.70731,-3.14167 -7.51769,-6.98149 z m 13.99999,-14 -6.92801,-6.98151 2.91112,-3.03853 2.91111,-3.03857 7.27913,7.23056 7.27911,7.23053 -2.67251,2.78951 c -1.46987,1.53422 -2.93789,2.78951 -3.26222,2.78951 -0.32436,0 -3.70735,-3.14168 -7.51773,-6.9815 z m 13.99999,-14 -6.92801,-6.98151 2.91112,-3.03854 2.91112,-3.03856 7.27914,7.23054 7.27912,7.23055 -2.67251,2.78953 c -1.46989,1.53422 -2.9379,2.78947 -3.26226,2.78947 -0.32434,0 -3.70731,-3.14164 -7.51772,-6.98148 z m -53.02355,1.92612 c -2.39539,-0.9374 -56.006191,-54.77561 -56.756211,-56.99698 -0.28828,-0.85382 0.0565,-2.87882 0.76583,-4.5 0.70951,-1.62121 32.512691,-34.11013 70.673711,-72.19765 65.20182,-65.07614 69.5932,-69.24999 72.85948,-69.24999 3.21786,0 5.53436,2.05958 31.21908,27.75658 25.68203,25.69432 27.74329,28.0149 27.74329,31.23323 0,3.26873 -4.16998,7.64822 -69.71872,73.22186 -38.34529,38.35984 -70.86013,70.14306 -72.2552,70.62939 -1.39503,0.4863 -3.43409,0.53292 -4.53126,0.1036 z m 69.50532,-77.44474 66.49447,-66.50014 -24.24813,-24.2481 -24.24811,-24.24813 -66.7448,66.74482 -66.744821,66.74478 23.987801,24.00345 c 13.19332,13.2019 24.21763,24.00344 24.49847,24.00344 0.28084,0 30.43317,-29.92507 67.00512,-66.50012 z m -3.2915,61.71037 -6.7377,-6.78973 3.30155,-3.19999 3.30153,-3.2 6.713,6.76482 c 3.69215,3.72067 6.71299,7.23758 6.71299,7.81541 0,1.2853 -4.26027,5.39924 -5.59128,5.39924 -0.52929,0 -3.99433,-3.0554 -7.70009,-6.78975 z m 14.49919,-13.50105 -7.24793,-7.29659 3.04777,-2.91998 3.04779,-2.91993 7.20834,7.20833 7.20835,7.20836 -3.00822,3.00821 -3.0082,3.0082 z m 14,-14.00001 -7.24792,-7.2966 3.04778,-2.91994 3.04776,-2.91996 7.20835,7.20835 7.20837,7.20836 -3.00823,3.0082 -3.0082,3.00822 z m 13.99998,-13.99998 -7.24791,-7.2966 3.04778,-2.91996 3.04776,-2.91996 7.20838,7.20833 7.20833,7.20838 -3.0082,3.00821 -3.00821,3.00822 z m 14,-13.99999 -7.24789,-7.29662 3.04776,-2.91996 3.04778,-2.91995 7.20835,7.20835 7.20834,7.20834 -3.00821,3.00821 -3.00822,3.00822 z m 14.00002,-14.00002 -7.24792,-7.29659 3.04777,-2.91997 3.04777,-2.91995 7.20835,7.20836 7.20835,7.20833 -3.00822,3.00822 -3.00821,3.00821 z m 13.28841,-13.71303 -6.95014,-7.00378 3.23226,-3.23227 3.23226,-3.23226 7.20835,7.20834 7.20835,7.20834 -2.90074,3.02773 c -1.59543,1.66526 -3.16613,3.02773 -3.4905,3.02773 -0.32432,0 -3.71728,-3.1517 -7.53984,-7.00383 z m 14.02213,-13.97768 -6.928,-6.98149 2.91112,-3.03855 2.91112,-3.03855 7.27913,7.23055 7.2791,7.23054 -2.67252,2.7895 c -1.46986,1.53423 -2.93789,2.78952 -3.26222,2.78952 -0.32436,0 -3.70735,-3.14168 -7.51773,-6.98152 z m 52,-52 -6.928,-6.98147 2.91112,-3.03856 2.91112,-3.03856 7.27913,7.23055 7.27911,7.23053 -2.67253,2.78951 c -1.46986,1.53423 -2.93788,2.78952 -3.26223,2.78952 -0.32435,0 -3.70734,-3.14169 -7.51772,-6.98152 z m 13.99998,-13.99998 -6.92798,-6.9815 2.9111,-3.03854 2.91112,-3.03858 7.27914,7.23056 7.27913,7.23054 -2.67252,2.78951 c -1.46989,1.53423 -2.93791,2.7895 -3.26223,2.7895 -0.32437,0 -3.70735,-3.14167 -7.51776,-6.98149 z M 293.5956,247.41471 c -25.32032,-25.33246 -27.74332,-28.05024 -27.74332,-31.11897 0,-2.99267 1.66082,-5.04499 15.10451,-18.66538 8.30748,-8.41664 16.36127,-15.82357 17.8973,-16.45982 2.23663,-0.92645 3.36092,-0.85699 5.64551,0.34873 3.93303,2.0757 54.9753,53.62825 55.79426,56.35206 1.08878,3.62117 -1.52943,7.05651 -17.18617,22.54996 -13.37838,13.23884 -15.25706,14.74999 -18.33714,14.74999 -3.1601,0 -5.627,-2.1964 -31.17495,-27.75657 z m 43.52231,4.99154 c 6.45391,-6.47074 11.73439,-12.20472 11.73439,-12.74216 0,-1.30701 -46.20024,-47.49281 -47.50767,-47.49281 -0.56297,0 -6.4113,5.40177 -12.99625,12.00391 l -11.97264,12.00394 23.98046,23.99605 c 13.18927,13.19786 24.21601,23.99611 24.5039,23.99611 0.28791,0 5.80391,-5.29426 12.25781,-11.76504 z m 52.25274,6.78354 -6.928,-6.98151 2.91112,-3.03855 2.91111,-3.03855 7.27913,7.23054 7.27914,7.23057 -2.67252,2.7895 c -1.46989,1.53421 -2.93789,2.78947 -3.26225,2.78947 -0.32435,0 -3.70732,-3.14163 -7.51773,-6.98147 z m 13.19027,-13.80826 -6.7377,-6.78974 3.30155,-3.19997 3.30155,-3.2 6.71297,6.76482 c 3.69217,3.72067 6.713,7.23759 6.713,7.81541 0,1.2853 -4.26027,5.39923 -5.59128,5.39923 -0.5293,0 -3.99434,-3.05539 -7.70009,-6.78975 z m 14.4992,-13.50105 -7.24792,-7.29659 3.04775,-2.91996 3.04779,-2.91994 7.20834,7.20834 7.20836,7.20834 -3.00823,3.00822 -3.00821,3.00821 z M 343.5956,197.41471 c -25.30705,-25.31914 -27.7433,-28.05149 -27.7433,-31.11491 0,-2.98243 1.65104,-5.03468 14.74999,-18.33466 15.43241,-15.6692 18.90262,-18.32355 22.54998,-17.24838 3.05086,0.89935 56.43736,54.27198 57.15801,57.14313 0.95284,3.79646 -1.52856,7.05086 -17.20259,22.56141 -13.37839,13.23884 -15.25704,14.74999 -18.33712,14.74999 -3.16012,0 -5.62702,-2.19639 -31.17497,-27.75658 z m 43.52234,4.99156 c 6.45387,-6.47077 11.73435,-12.20474 11.73435,-12.74219 0,-1.30699 -46.20023,-47.49278 -47.50763,-47.49278 -0.56301,0 -6.41132,5.40175 -12.99626,12.0039 l -11.97266,12.00392 23.98045,23.99609 c 13.18927,13.19783 24.21601,23.99608 24.50392,23.99608 0.2879,0 5.80392,-5.29426 12.25783,-11.76502 z m 43.94217,15.47422 -7.24793,-7.29662 3.0478,-2.91993 3.04776,-2.91997 7.20834,7.20838 7.20837,7.20833 -3.00822,3.00821 -3.00821,3.00821 z m 13.99998,-13.99998 -7.24791,-7.29663 3.04778,-2.91994 3.04777,-2.91996 7.20836,7.20834 7.20836,7.20834 -3.00823,3.00825 -3.00821,3.0082 z m 14,-14.00001 -7.2479,-7.2966 3.04777,-2.91998 3.04778,-2.91994 7.20835,7.20835 7.20834,7.20834 -3.00821,3.00822 -3.00821,3.0082 z m 14.00002,-14.00001 -7.24791,-7.29661 3.04775,-2.91995 3.04779,-2.91993 7.20835,7.20833 7.20834,7.20834 -3.00821,3.00822 -3.00822,3.00821 z m -79.4379,-28.47912 c -25.29065,-25.29063 -27.76991,-28.06854 -27.76991,-31.11491 0,-2.96523 1.67453,-5.04522 14.74999,-18.321297 14.38641,-14.607189 18.31012,-17.79387 21.90918,-17.79387 2.1991,0 57.21499,54.715237 57.95902,57.642297 0.92208,3.62751 -1.9132,7.31923 -17.36282,22.60769 -13.33288,13.19384 -15.26469,14.75001 -18.31051,14.75001 -3.12499,0 -5.6891,-2.28406 -31.17495,-27.76992 z m 43.49572,5.00491 c 6.4539,-6.47078 11.73437,-12.20477 11.73437,-12.7422 0,-1.30701 -46.20025,-47.492797 -47.50766,-47.492797 -0.56298,0 -6.41129,5.40175 -12.99625,12.003917 l -11.97264,12.00391 23.98046,23.99611 c 13.18923,13.19784 24.21601,23.99605 24.5039,23.99605 0.28789,0 5.80392,-5.29426 12.25782,-11.76499 z m 49.25273,9.78351 -6.928,-6.98149 2.91111,-3.03856 2.91112,-3.03857 7.27913,7.23057 7.2791,7.23054 -2.6725,2.7895 c -1.46988,1.53423 -2.93791,2.78951 -3.26225,2.78951 -0.32433,0 -3.70733,-3.14167 -7.51771,-6.9815 z"
       id="path1" />
  </g>
</svg>
